<?xml version="1.0" encoding="UTF-8"?>
<svg height="128px" viewBox="0 0 128 128" width="128px" xmlns="http://www.w3.org/2000/svg" xmlns:xlink="http://www.w3.org/1999/xlink">
    <filter id="a" height="100%" width="100%" x="0%" y="0%">
        <feColorMatrix color-interpolation-filters="sRGB" values="0 0 0 0 1 0 0 0 0 1 0 0 0 0 1 0 0 0 1 0"/>
    </filter>
    <clipPath id="b">
        <rect height="128" width="128"/>
    </clipPath>
    <clipPath id="c">
        <rect height="128" width="128"/>
    </clipPath>
    <mask id="d">
        <g filter="url(#a)">
            <g clip-path="url(#c)" filter="url(#a)">
                <g clip-path="url(#b)">
                    <path d="m 45.066406 232.050781 c -14.546875 2.804688 -23.765625 8.585938 -23.785156 14.917969 c -0.007812 9.207031 19.117188 16.667969 42.707031 16.667969 c 23.589844 0 42.710938 -7.460938 42.707031 -16.667969 c -0.003906 -6.324219 -9.179687 -12.101562 -23.695312 -14.917969 z m 0 0" fill="#3d3846" stroke="#241f31" stroke-linejoin="round" stroke-miterlimit="3.71667" stroke-width="6.89257" transform="matrix(1 0 0 1 0 -172)"/>
                    <path d="m 45.066406 228.316406 c -14.546875 2.804688 -23.765625 8.585938 -23.785156 14.917969 c -0.007812 9.203125 19.117188 16.667969 42.707031 16.667969 c 23.589844 0 42.710938 -7.464844 42.707031 -16.667969 c -0.003906 -6.324219 -9.179687 -12.101563 -23.695312 -14.917969 z m 0 0" stroke="#000000" stroke-linejoin="round" stroke-miterlimit="3.71667" stroke-width="6.89257" transform="matrix(1 0 0 1 0 -172)"/>
                    <path d="m 64 230.59375 c -14.535156 0.03125 -30.710938 0.480469 -44.144531 1.699219 v 2.222656 h -0.019531 v 9.628906 c 13.429687 1.21875 29.605468 1.667969 44.144531 1.699219 c 16.324219 0 32.59375 -0.480469 44.140625 -1.699219 v -2.222656 h 0.019531 v -9.628906 c -11.546875 -1.21875 -27.816406 -1.699219 -44.140625 -1.699219 z m 0 0" fill="#f5c211" stroke="#241f31" stroke-linejoin="round" stroke-miterlimit="3.71667" stroke-width="4" transform="matrix(1 0 0 1 0 -172)"/>
                    <path d="m 64.007812 222.96875 c -14.535156 0.03125 -30.710937 0.480469 -44.144531 1.699219 v 2.222656 h -0.019531 v 9.628906 c 13.433594 1.21875 29.609375 1.667969 44.144531 1.699219 c 16.324219 0 32.59375 -0.480469 44.140625 -1.699219 v -2.222656 h 0.019532 v -9.628906 c -11.542969 -1.21875 -27.8125 -1.699219 -44.140626 -1.699219 z m 0 0" fill="#f5c211" stroke="#241f31" stroke-linejoin="round" stroke-miterlimit="3.71667" stroke-width="4" transform="matrix(1 0 0 1 0 -172)"/>
                    <path d="m 64.011719 203.875 c -16.996094 0.050781 -35.910157 0.808594 -51.613281 2.851562 v 3.730469 h -0.023438 v 16.164063 c 15.703125 2.046875 34.617188 2.800781 51.609375 2.855468 c 19.089844 0 38.113281 -0.808593 51.609375 -2.855468 v -3.726563 h 0.023438 v -16.167969 c -13.496094 -2.042968 -32.519532 -2.851562 -51.605469 -2.851562 z m 0 0" fill="#ffffff" stroke="#5e5c64" stroke-linejoin="round" stroke-miterlimit="3.71667" stroke-width="4" transform="matrix(1 0 0 1 0 -172)"/>
                    <path d="m 70.304688 216.675781 c 0 5.039063 -2.824219 9.121094 -6.308594 9.121094 s -6.308594 -4.082031 -6.308594 -9.121094 c 0 -5.039062 2.824219 -9.121093 6.308594 -9.121093 s 6.308594 4.082031 6.308594 9.121093 z m 0 0" fill="#5e5c64" stroke="#241f31" stroke-linejoin="round" stroke-miterlimit="3.71667" stroke-width="2.5" transform="matrix(1 0 0 1 0 -172)"/>
                    <path d="m 12.757812 216.542969 h 19.921876 v 0.265625 h -19.921876 z m 0 0" fill="#5e5c64" stroke="#77767b" stroke-linejoin="round" stroke-miterlimit="3.71667" stroke-width="2" transform="matrix(1 0 0 1 0 -172)"/>
                    <path d="m 95.316406 216.542969 h 19.921875 v 0.265625 h -19.921875 z m 0 0" fill="#ffffff" stroke="#9a9996" stroke-linejoin="round" stroke-miterlimit="3.71667" stroke-width="2" transform="matrix(1 0 0 1 0 -172)"/>
                </g>
            </g>
        </g>
    </mask>
    <mask id="e">
        <g filter="url(#a)">
            <rect fill-opacity="0.8" height="184.32" width="184.32" x="-28.16" y="-28.16"/>
        </g>
    </mask>
    <linearGradient id="f" gradientTransform="matrix(0 0.37 -0.98462 0 295.38501 -30.360001)" gradientUnits="userSpaceOnUse" x1="300" x2="428" y1="235" y2="235">
        <stop offset="0" stop-color="#f9f06b"/>
        <stop offset="1" stop-color="#f5c211"/>
    </linearGradient>
    <clipPath id="g">
        <rect height="128" width="128"/>
    </clipPath>
    <clipPath id="h">
        <rect height="128" width="128"/>
    </clipPath>
    <g stroke-linejoin="round" stroke-miterlimit="3.71667">
        <path d="m 45.066406 60.050781 c -14.546875 2.804688 -23.765625 8.585938 -23.785156 14.917969 c -0.007812 9.207031 19.117188 16.667969 42.707031 16.667969 c 23.589844 0 42.710938 -7.460938 42.707031 -16.667969 c -0.003906 -6.324219 -9.179687 -12.101562 -23.695312 -14.917969 z m 0 0" fill="#3d3846" stroke="#241f31" stroke-width="6.89257"/>
        <path d="m 45.066406 56.316406 c -14.546875 2.804688 -23.765625 8.585938 -23.785156 14.917969 c -0.007812 9.203125 19.117188 16.667969 42.707031 16.667969 c 23.589844 0 42.710938 -7.464844 42.707031 -16.667969 c -0.003906 -6.324219 -9.179687 -12.101563 -23.695312 -14.917969 z m 0 0" stroke="#000000" stroke-width="6.89257"/>
        <path d="m 64 58.59375 c -14.535156 0.03125 -30.710938 0.480469 -44.144531 1.699219 v 2.222656 h -0.019531 v 9.628906 c 13.429687 1.21875 29.605468 1.667969 44.144531 1.699219 c 16.324219 0 32.59375 -0.480469 44.140625 -1.699219 v -2.222656 h 0.019531 v -9.628906 c -11.546875 -1.21875 -27.816406 -1.699219 -44.140625 -1.699219 z m 0 0" fill="#f5c211" stroke="#241f31" stroke-width="4"/>
        <path d="m 64.007812 50.96875 c -14.535156 0.03125 -30.710937 0.480469 -44.144531 1.699219 v 2.222656 h -0.019531 v 9.628906 c 13.433594 1.21875 29.609375 1.667969 44.144531 1.699219 c 16.324219 0 32.59375 -0.480469 44.140625 -1.699219 v -2.222656 h 0.019532 v -9.628906 c -11.542969 -1.21875 -27.8125 -1.699219 -44.140626 -1.699219 z m 0 0" fill="#f5c211" stroke="#241f31" stroke-width="4"/>
        <path d="m 64.011719 31.875 c -16.996094 0.050781 -35.910157 0.808594 -51.613281 2.851562 v 3.730469 h -0.023438 v 16.164063 c 15.703125 2.046875 34.617188 2.800781 51.609375 2.855468 c 19.089844 0 38.113281 -0.808593 51.609375 -2.855468 v -3.726563 h 0.023438 v -16.167969 c -13.496094 -2.042968 -32.519532 -2.851562 -51.605469 -2.851562 z m 0 0" fill="#ffffff" stroke="#5e5c64" stroke-width="4"/>
        <path d="m 70.304688 44.675781 c 0 5.039063 -2.824219 9.121094 -6.308594 9.121094 s -6.308594 -4.082031 -6.308594 -9.121094 c 0 -5.039062 2.824219 -9.121093 6.308594 -9.121093 s 6.308594 4.082031 6.308594 9.121093 z m 0 0" fill="#5e5c64" stroke="#241f31" stroke-width="2.5"/>
        <path d="m 12.757812 44.542969 h 19.921876 v 0.265625 h -19.921876 z m 0 0" fill="#5e5c64" stroke="#77767b" stroke-width="2"/>
        <path d="m 95.316406 44.542969 h 19.921875 v 0.265625 h -19.921875 z m 0 0" fill="#ffffff" stroke="#9a9996" stroke-width="2"/>
    </g>
    <g mask="url(#d)">
        <g clip-path="url(#h)">
            <g mask="url(#e)">
                <g clip-path="url(#g)">
                    <path d="m 128 80.640625 v 47.359375 h -128 v -47.359375 z m 0 0" fill="url(#f)"/>
                    <path d="m 13.308594 80.640625 l 47.355468 47.359375 h 21.214844 l -47.359375 -47.359375 z m 42.421875 0 l 47.363281 47.359375 h 21.214844 l -47.363282 -47.359375 z m 42.429687 0 l 29.839844 29.839844 v -21.210938 l -8.628906 -8.628906 z m -98.160156 7.90625 v 21.214844 l 18.238281 18.238281 h 21.214844 z m 0 0"/>
                </g>
            </g>
        </g>
    </g>
</svg>
